<svg xmlns="http://www.w3.org/2000/svg" width="101.65" height="59.88" viewBox="0 0 101.65 59.88"><title>Asset 1</title><g id="f4da064c-2887-4ead-9cbb-5db225bccf77" data-name="Layer 2"><g id="eea02137-ab58-40d9-9533-78106626f5e4" data-name="Layer 1"><path d="M88.23,4.19c6,2.55,11,6.69,12.5,12.86,2.3,9.59-5.29,18.68-13.22,24.54A92,92,0,0,1,24.26,58.94c-5.23-.53-10.53-1.56-15.07-4.2C-9.52,43.83,6.09,25.2,17.75,16.47A81.65,81.65,0,0,1,77.66,1.31,42.88,42.88,0,0,1,88.23,4.19Z" style="fill:none;stroke:#000;stroke-miterlimit:10"/><path d="M36.07,41.55a4.56,4.56,0,0,0,.18.52c2.62,6.54,14.9,4.06,19.71,2.4,4.63-1.59,15.59-7.16,12.6-13.76-2.55-5.63-13.07-4-17.65-2.82C45.94,29.16,33.89,34.45,36.07,41.55Z" style="stroke:#000;stroke-miterlimit:10"/></g></g></svg>